<svg width="297" height="151" viewBox="0 0 297 151" fill="none" xmlns="http://www.w3.org/2000/svg">
<path d="M10.7635 63.4736L10.0225 66.8492L20.3139 59.5217L19.0789 57.7928V10.2053H27.065V2.79554L28.3 1.31357H2.28335L3.43599 2.79554V10.2053H10.7635V63.4736ZM9.94015 11.0287H2.61268V3.12486L0.554395 0.490262H30.029L27.8884 3.12486V11.0287H19.9022V57.4635L21.3842 59.6864L8.78752 68.8252L9.94015 63.309V11.0287ZM44.1906 1.31357L41.8853 4.35983V42.8085L50.5301 49.0657V27.0009L56.8696 30.9528V48.8187L66.0907 42.8085V26.6716L59.2572 22.802L66.0907 19.0148V4.93615L63.2091 1.31357H44.1906ZM51.3534 10.617V17.4505L56.0463 14.6512V10.617H51.3534ZM63.5384 0.490262L66.914 4.60682V19.5088L60.9038 22.802L66.914 26.1776V43.3025L56.0463 50.3006V31.4468L51.3534 28.4829V50.7123L41.062 43.3025V4.0305L43.8613 0.490262H63.5384ZM56.8696 9.79369V15.1452L50.5301 18.9324V9.79369H56.8696ZM94.1817 28.4005V19.1794H88.8302V10.2877H95.1697V15.7215H104.391V4.77148L100.933 1.31357H83.4786L80.1854 5.01848V42.8908L91.2178 51.7003L104.391 41.9852V32.3524H95.1697V41.9852L88.8302 36.5513V28.4005H94.1817ZM89.6535 29.2238V36.222L94.3464 40.1739V31.5291H105.214V42.4792L91.2178 52.6882L79.3621 43.2202V4.68915L83.1493 0.490262H101.262L105.214 4.44216V16.5448H94.3464V11.111H89.6535V18.3561H95.005V29.2238H89.6535ZM132.646 24.3663V11.111H127.954V24.3663H132.646ZM133.47 34.1637V49.8067L142.691 42.8908V4.77148L139.233 1.31357H121.779L118.485 5.01848V42.8908L127.13 49.8067V34.1637H133.47ZM127.13 25.1896V10.2877H133.47V25.1896H127.13ZM127.954 34.987V51.4533L117.662 43.2202V4.68915L121.449 0.490262H139.562L143.514 4.44216V43.2202L132.646 51.4533V34.987H127.954ZM167.9 51.7003L180.991 42.8085V26.6716L165.43 18.4385V9.79369H171.77V12.7576H180.991V4.93615L178.109 1.31357H159.091L156.786 4.35983V22.3904L171.77 30.9528V41.9029L165.43 36.469V35.0694H156.786V42.8908L167.9 51.7003ZM155.962 43.2202V34.2461H166.254V36.1397L170.947 40.0916V31.4468L155.962 22.8843V4.0305L158.762 0.490262H178.439L181.814 4.60682V13.5809H170.947V10.617H166.254V17.9445L181.814 26.1776V43.3025L167.9 52.6882L155.962 43.2202ZM210.152 41.9852L203.813 36.5513V1.31357H195.168V42.8908L206.2 51.7003L219.373 41.9852V1.31357H210.152V41.9852ZM209.329 0.490262H220.197V42.4792L206.2 52.6882L194.345 43.2202V0.490262H204.636V36.222L209.329 40.1739V0.490262ZM235.771 1.31357L233.466 4.35983V42.8085L242.111 49.0657V27.0009L248.45 30.9528V48.8187L257.672 42.8085V26.6716L250.838 22.802L257.672 19.0148V4.93615L254.79 1.31357H235.771ZM242.934 10.617V17.4505L247.627 14.6512V10.617H242.934ZM255.119 0.490262L258.495 4.60682V19.5088L252.485 22.802L258.495 26.1776V43.3025L247.627 50.3006V31.4468L242.934 28.4829V50.7123L232.643 43.3025V4.0305L235.442 0.490262H255.119ZM248.45 9.79369V15.1452L242.111 18.9324V9.79369H248.45ZM285.763 28.4005V19.1794H280.411V10.2877H286.75V15.7215H295.972V4.77148L292.514 1.31357H275.059L271.766 5.01848V42.8908L282.799 51.7003L295.972 41.9852V32.3524H286.75V41.9852L280.411 36.5513V28.4005H285.763ZM281.234 29.2238V36.222L285.927 40.1739V31.5291H296.795V42.4792L282.799 52.6882L270.943 43.2202V4.68915L274.73 0.490262H292.843L296.795 4.44216V16.5448H285.927V11.111H281.234V18.3561H286.586V29.2238H281.234ZM111.031 135.594L120.334 128.266L119.84 127.443V83.3136H110.949V106.366H104.444V83.3136H95.0587L96.2114 84.7955V144.239L95.388 147.779L94.9764 148.108L97.7756 146.05L105.432 140.04L104.444 138.558V115.258H111.031V135.594ZM110.208 116.081H105.268V138.393L106.503 140.204L98.2696 146.709L95.5527 148.767L93.9884 150.084L95.388 144.074V85.1249L93.3298 82.4903H105.268V105.543H110.125V82.4903H120.664V127.278L121.405 128.431L110.208 137.241V116.081ZM149.727 123.985L143.388 118.551V83.3136H134.743V124.891L145.775 133.7L158.948 123.985V83.3136H149.727V123.985ZM148.904 82.4903H159.772V124.479L145.775 134.688L133.92 125.22V82.4903H144.211V118.222L148.904 122.174V82.4903ZM188.684 131.971L197.247 125.138V83.3136H188.602V101.344L182.509 83.3136H173.041V124.891L182.262 131.807V110.812L188.684 131.971ZM183.086 116.411V133.453L172.218 125.22V82.4903H183.168L187.778 96.2396V82.4903H198.07V125.467L188.19 133.289L183.086 116.411ZM234.97 93.9343V83.3136H211.341V93.9343H218.504V131.807L227.725 124.891V93.9343H234.97ZM228.548 94.7576V125.22L217.681 133.453V94.7576H210.518V82.4903H235.794V94.7576H228.548Z" fill="#FFEAA1"/>
</svg>
